<svg width="876" height="889" fill="none" xmlns="http://www.w3.org/2000/svg"><path d="M768.618 338.436c-40.731 37.851-133.881 23.118-176.38-22.615-42.499-45.734-16.469-113.517 24.262-151.368 40.731-37.85 150.471-11.696 192.97 34.038 42.499 45.733-.121 102.095-40.852 139.945zM246.332 1255.13c-142.147 62.38-403.822-129.51-498.789-345.906-94.966-216.397 23.166-400.246 165.312-462.628C55.002 384.214 357.772 639.338 452.74 855.734c94.967 216.396-64.26 337.016-206.407 399.396zM215.5 72c0 31.756-37.744 65-69.5 65S98 99.756 98 68 145.744.5 177.5.5s38 39.744 38 71.5zM876 861.762C876 903.406 820.429 947 773.672 947 726.916 947 703 898.16 703 856.516 703 814.873 773.295 768 820.051 768S876 820.118 876 861.762z" fill="#51C4D3"/></svg>