<svg width="644" height="627" fill="none" xmlns="http://www.w3.org/2000/svg"><g filter="url(#filter0_d_135_10)"><path fill-rule="evenodd" clip-rule="evenodd" d="M141.559 51.408l28.724-5.785c-8.059-1.446-13.639-12.603-28.724-10.537-2.066 5.166-1.86 10.95 0 16.322z" fill="#FA9E85"/><path d="M113.533 65.468c-1.231-6.939 3.289-13.594 10.192-15.008l165.406-33.862c7.016-1.436 13.872 3.071 15.334 10.081l47.662 228.512c1.481 7.101-3.136 14.04-10.257 15.418l-172.603 33.384c-7.126 1.378-14-3.346-15.269-10.492L113.533 65.468z" fill="#132C33"/><path d="M132.247 166.535c-1.34-7.059 3.3-13.866 10.361-15.198l171.88-32.441c7.024-1.325 13.802 3.27 15.17 10.286l45.67 234.142c1.376 7.055-3.234 13.887-10.291 15.252l-172.923 33.447c-7.067 1.366-13.899-3.269-15.241-10.34l-44.626-235.148z" fill="#132C33"/><path d="M125.734 72.768c-1.333-7.053 3.301-13.851 10.353-15.187l146.019-27.672c7.031-1.332 13.817 3.269 15.182 10.294l39.053 201.035c1.369 7.048-3.235 13.872-10.283 15.24l-146.912 28.531c-7.073 1.374-13.914-3.267-15.252-10.347l-38.16-201.894z" fill="#D8E3E7"/><path d="M173.933 168.407c.934 1.817 3.669 1.231 3.776-.809l.819-15.579a2 2 0 011.607-1.856l2.113-.421a2 2 0 012.371 2.237l-3.57 25.63a2 2 0 01-1.59 1.685l-3.206.639a2 2 0 01-2.116-.95l-13.087-22.31a2 2 0 011.334-2.973l2.142-.427a2 2 0 012.17 1.047l7.237 14.087zM199.434 165.584a2 2 0 00-1.962 2.39l1.091 5.475a2 2 0 01-1.571 2.352l-1.823.363a1.999 1.999 0 01-2.352-1.571l-4.759-23.882a2 2 0 011.653-2.367L198.32 147c2.095-.417 4.264-1.451 6-1 1.749.448 2.862 1.753 4 3 1.136 1.234 2.642 2.699 3 4.5.545 2.733-.938 5.043-2.5 7-1.521 1.904-3.128 4.327-6.306 5.042-.128.029-.26.042-.391.042h-2.689zm-2.996-7.63c.238.65.795 1.131 1.473 1.272l2.894.598c.262.054.533.058.794-.006 1.313-.322 2.265-.88 2.857-1.675.662-.876.86-1.977.596-3.305-.273-1.367-.895-2.391-1.867-3.074-.973-.682-2.17-.895-3.593-.638l-2.978.593a2 2 0 00-1.488 2.648l1.312 3.587zM232.121 139.806a2 2 0 012.352 1.57l3.269 16.408c.608 3.052.131 5.657-1.431 7.813-1.549 2.154-3.977 3.561-7.284 4.22-3.257.649-6.014.302-8.273-1.04-2.259-1.343-3.708-3.517-4.347-6.523l-2.763-16.785a2 2 0 011.645-2.297l1.949-.325a1.888 1.888 0 012.196 1.761 43.426 43.426 0 003.052 13.809l.766 1.911c.045.115.081.233.102.354.298 1.755-.136 3.351.865 3.999 1.047.654 2.552.307 4.098 0 3.23-.644 4.323-2.149 3.697-5.556l-3.307-16.6a2 2 0 011.571-2.352l1.843-.367zM272.289 158.956a2 2 0 01-1.375 2.303l-14.507 4.448a2 2 0 01-2.587-1.912v-2.307c0-.321.077-.637.225-.921l5.831-11.235c.969-1.601 1.647-2.964 2.033-4.09.4-1.128.509-2.146.328-3.052-.247-1.239-.753-2.147-1.518-2.725-.769-.59-1.734-.77-2.896-.538-1.251.249-2.154.88-2.709 1.894-.297.544-.292 1.17-.181 1.854.168 1.037-.399 2.039-1.412 2.316l-1.632.445c-1.118.305-2.315-.389-2.667-1.494-.386-1.212-.731-2.46-.402-3.442.538-1.568 2.177-2.413 3.5-3.5 1.321-1.1 2.833-2.181 4.71-2.555 2.873-.573 5.239-.327 7.097.737 1.871 1.061 3.057 2.849 3.558 5.365.275 1.379.197 2.855-.233 4.427-.43 1.573-1.324 3.484-2.681 5.733l-2.632 4.997c-.832 1.58.666 3.375 2.369 2.84l5.119-1.61a2 2 0 012.562 1.517l.1.505zM289.108 155.409a2 2 0 01-1.571 2.352l-1.613.322a2.001 2.001 0 01-2.352-1.571l-3.33-16.715a2 2 0 00-2.916-1.367l-1.429.776a2 2 0 01-2.916-1.367l-.091-.458a2 2 0 01.932-2.106l9.442-5.668a.515.515 0 01.771.342l5.073 25.46z" fill="#132C33" fill-opacity=".8"/><g filter="url(#filter1_d_135_10)"><path fill-rule="evenodd" clip-rule="evenodd" d="M253.354 135.085l.207 5.372c2.893 1.446 1.033.413 3.306 3.926 1.447 2.685 1.86 2.685 2.893 5.165 3.1 1.653 2.48 1.653 4.96 4.132 7.026 7.025 10.125 6.611 17.565 11.57 7.646 4.959 27.69 9.711 27.69 9.711 6.819 1.446 7.853 1.653 10.539 7.851 2.273 4.752 4.34 8.058 7.233 12.396 2.686-.413 8.059 12.397 8.885 16.736 11.159 50.619 8.886 33.883-1.653 66.941-17.565 55.371-5.373 89.048-6.819 99.998l1.24 5.166-16.945 3.099c-6.199 1.239-2.687-.207-5.58 2.479l6.613-1.446c1.86 1.859.413.206 1.653 1.859l4.753 6.199c1.86 2.479 5.166 5.991 7.026 8.057 5.373 5.785 10.126 8.678 17.565 12.19 6.819 3.306 14.465 5.372 19.838 9.504 4.959 3.719 11.572 8.678 13.845 16.116l1.86-2.066c2.686-7.232 5.786-4.133 12.192-6.405-1.653-6.818-.207-9.298 4.546-12.81-.207-8.884 1.24-14.876 10.539-14.876 8.886-13.223 5.993-8.471 14.465-17.562 9.506-10.33 18.392-17.561 34.923-20.66-2.48-4.546-7.646-8.058-9.919-11.777-19.218-10.124-17.358-41.528-19.424-51.032l-5.167-64.669c-.413-11.363-1.446-32.438-13.225-38.223-4.133-2.066-2.066-.413-5.373-3.305-2.479-2.48-2.686-2.686-5.166-4.752l-27.277-24.174c-4.546-4.338-6.406-3.305-9.299-9.297-3.72-1.653-13.639-11.157-17.152-14.669-6.819-6.612-8.265-9.917-21.697-9.091l-1.86-2.273c.62 3.306-2.273 2.066-5.579 1.86h-16.532c-7.439-.413-34.303 0-37.816-1.86l-7.853.62z" fill="#FA9E85"/></g><path fill-rule="evenodd" clip-rule="evenodd" d="M446.774 355.95c-1.446-5.372-2.066-2.273-4.133-7.025 5.786.827-1.033-.826 7.439 6.405.414.207 1.24 1.033 1.654 1.446 1.24 1.24 1.859 2.273 2.893 3.719.206 0 .62-.413.826 0l2.48-.413c4.133-.207 1.447-.826 3.926.62-2.686 1.859-3.926.207-5.166 3.099 5.58 3.512 8.886-2.273 22.318.207.206 0 .62 0 .826.206 4.753 1.033 2.893 3.306 3.72 7.025.62 3.306 1.24 3.512 4.34 4.752.619-6.198 1.653-9.091-2.274-13.43 0 0-4.339-3.925-4.546-3.925-3.099-1.86-5.373-1.033-7.232-2.273 12.192.207 10.125-1.24 14.052 1.86 7.439 5.578-5.167-1.653 1.859 1.652.207-.413.414-1.033.414-.826.206.207.413-.62.413-.62 3.306-3.512 9.092-2.066 17.565-2.066v-7.438c3.099 0 13.845-.826 16.325.62l1.86 2.479 2.273-4.132c-3.307-4.339-2.48-.206-3.307-4.545-.826-3.926.62-3.099 1.034-7.232 2.686 2.273 1.446 1.86 3.512 4.959 6.82 10.124 23.971 23.553 34.717 29.752 12.605 7.438 47.942 19.008 55.794 14.462v4.959c2.893-2.893 2.686-14.669 3.1-19.834 1.24-19.008-1.033-40.909-5.58-58.677l-2.479 2.066c.413-7.645-2.067-8.471-2.893-11.364-.207.207-.207.413-.414.827l-1.446 2.272c-1.447 1.653 1.86 1.033-3.72 1.447h-28.93c-.207.206-.413.413-.413.826l-1.86 4.339-32.237.206c-.207.207-.413.207-.413.62l-.62 3.719h-17.152c0 5.785.827 3.926-2.273 5.579-3.926-1.447-2.273-1.24-3.926-5.785-19.838-49.586 11.779-84.297-12.192-139.668-9.712-8.471-51.455-13.636-66.127-14.669-12.812-.827-26.863-.413-40.295-.413-13.226 0-26.244-1.033-38.643-1.24 2.893 5.992 4.753 4.959 9.299 9.297l27.277 24.174c2.48 2.066 2.687 2.272 5.166 4.752 3.307 2.892 1.24 1.239 5.373 3.305 11.779 5.785 12.812 26.86 13.225 38.223l5.167 64.669c2.066 9.504.206 40.908 19.424 51.032z" fill="#71BDCE"/><path fill-rule="evenodd" clip-rule="evenodd" d="M413.091 411.321c.826 7.644-2.273 12.603-8.473 13.636.827 8.471-.826 8.471-5.992 10.95 2.479 6.612 2.893 1.24 5.373 6.199 2.893 5.991-3.513 9.09-6.2 13.636-1.653 2.686-2.686 4.339-4.133 5.991 3.72 2.48 7.646 9.298 11.159 11.777l3.513-2.066c-3.926-8.471-2.686-4.752-2.686-14.049 0-3.513-.827-3.099-.62-5.166 0 0 1.86-4.545 2.066-5.578 4.133-.62 4.133.413 6.406-.207 7.646-2.479-4.959-7.851 7.646-12.603-3.926-12.396 5.786-12.809 8.473-16.115 5.372-6.612 4.752-11.984 16.738-23.14 0-.207.206-.414.413-.414l2.893-2.686c5.166-4.752 11.159-8.057 19.631-9.504.207 1.034 4.753 3.926 5.58 7.645-16.945 4.339-14.052 4.339-24.384 12.397-3.927 2.892-15.912 16.941-15.912 20.66.207 9.091 3.513 10.951-6.819 14.67 1.653 10.537-2.48 6.818-5.786 11.363 2.479 2.893 3.719.413 5.372 4.752 1.034 3.306-.62 6.405-2.066 8.058-7.026 7.644-5.993 8.677-10.952 10.537 1.653 9.091.206 4.752-1.653 10.744 5.992 5.785 34.303 40.495 46.495 52.478 4.959 4.752 7.232 7.645 12.192 12.397l9.712 8.677c1.24 1.033 2.067 1.653 3.513 2.893 4.133 3.719 7.646 7.644 13.019 11.776 1.033.827 2.066 1.447 3.099 2.273l10.126 8.884c17.565-8.677 36.163-16.942 52.281-27.685 12.606-8.471 32.65-28.512 37.403-42.355-4.546-2.479-22.731-18.388-24.797-21.074l-79.972-78.305c-4.133-4.545-8.679-8.884-9.506-11.983-5.166.826-8.679-15.496-12.812-19.421-6.612-5.992-15.498-8.058-24.797-2.686-13.432 7.644-18.598 12.809-27.897 23.76l-7.646 8.884z" fill="#FA9E85"/><path fill-rule="evenodd" clip-rule="evenodd" d="M203.966 376.817c1.033-10.743 14.879-9.091 14.672 0-.207 9.917-15.498 8.265-14.672 0zm107.456-79.544c-2.893 8.264-14.052 8.471-23.765 10.537-9.505 2.273-19.424 3.719-28.93 5.785-9.299 1.859-19.218 3.926-28.517 5.372-10.952 1.859-20.871-5.165-16.118-16.735 3.306-8.471 14.672-8.471 23.971-10.331l57.654-11.363c10.745-1.653 19.631 5.785 15.705 16.735zM170.283 45.623l-28.724 5.785c-5.786 1.86-20.044 3.1-20.664 18.182-.207 5.165 40.916 212.6 42.569 221.691l18.804 95.247c2.274 12.81 5.373 19.834 20.045 16.735 18.391-3.719 115.721-23.966 125.847-24.38 1.446-10.95-10.746-44.627 6.819-99.998 10.539-33.058 12.812-16.322 1.653-66.941-.826-4.339-6.199-17.149-8.885-16.736l7.439 41.322c5.373 20.248-9.299 19.628-25.211 22.727-14.052 2.686-28.517 5.578-42.362 8.058-107.456 19.627-97.537 29.751-105.802-11.777-2.893-14.049-5.58-28.099-8.266-42.148-7.646-40.289-17.978-88.016-24.591-126.858-3.926-22.107-6.406-24.793 16.532-29.132 28.31-5.578 56.207-11.363 84.517-16.735 62.821-11.983 63.854-18.388 69.433 11.777 3.1 16.115 15.292 72.932 16.119 83.883 3.306.206 6.199 1.446 5.579-1.86-4.546-29.338-12.399-60.95-17.358-89.668-1.86-10.537-4.96-17.975-14.052-20.248-10.126-2.479-99.19 19.215-119.441 21.075z" fill="#1E3359"/><path fill-rule="evenodd" clip-rule="evenodd" d="M212.025 407.602c5.58 13.636 7.026 34.917 35.957 34.71 13.431-.206 19.631-4.338 29.963 3.306 28.31 20.248 43.189 71.693 27.691 102.685-8.266 16.528-13.432 15.702-15.499 21.074 19.011 10.95 56.828 20.661 82.452 22.52 15.498 1.033 33.269.413 48.354-2.066 9.713-1.653 33.89-7.025 40.916-11.364-.206-4.958-30.17-46.073-36.783-52.065-1.653-1.446 0-.413-1.859-1.446-4.34 4.339-8.06 9.504-17.152 9.504-21.904 0-28.93-30.578-28.31-49.586 5.992 3.099 4.133 2.892 9.712.62.413 11.363 1.653 22.313 6.819 30.784 2.48 4.132 5.58 7.232 11.779 7.851 8.266.62 8.059-2.272 11.572-6.818-9.092-19.214-32.856-28.718-27.484-46.487 1.86-5.578 1.447-1.653.827-7.644l-7.646-1.653c-4.339 2.273-2.893 4.959-5.373 7.851-13.225-12.603-16.118-20.661-36.163-34.71-15.498-10.744-58.274-15.496-73.979-31.611-2.273-2.273-2.893-3.719-5.786-5.372l-50.008 9.917z" fill="#178CA6"/><path fill-rule="evenodd" clip-rule="evenodd" d="M48.156 350.165c1.033-1.447 0-3.099 6.2 4.132l.412-1.24c0-.206.207-1.033.414-1.239.826-1.24-.62-.414 1.653-1.86 1.86-.826.413-.413 2.48-.413.206 0 .826.206.826.206l.827-15.908h17.151l.207-11.777c9.092 0 13.432 1.859 20.458-2.273l5.166-2.892c3.1-1.86 1.24.206 2.893-2.273l-6.199-7.438c-3.72-4.339-4.34-3.512-5.993-9.711 4.753 1.86 3.1 2.067 7.439 3.513-5.58-1.86-1.653-2.893-6.82-3.306-3.305-1.859-5.372-8.058-5.992-11.363-4.753-29.959 10.126-43.182 21.904-60.33 6.2-9.091 6.2-11.777 10.126-22.521-1.446-1.652-10.952-8.677-13.638-10.743-14.052-10.95-13.226-10.537-25.005-24.587-5.166-6.198-5.579-8.884-5.166-19.008 6.2-1.446 5.786-3.512 14.672-3.099 9.506.207 25.004 7.851 33.27 12.603 2.893 1.653 2.686 2.066 6.406 3.513l-2.273-9.917c-4.96-1.86-14.259-10.331-19.218-14.05-3.513-2.479-5.373-4.132-8.886-7.231-3.1-2.479-4.753-5.579-8.679-8.265-4.96 1.86-2.893 1.447-5.993 4.752L71.3 143.143c-35.13 38.016-58.687 97.726-49.182 151.444 2.687 15.909 12.606 47.107 26.038 55.578z" fill="#88C8D7"/><path fill-rule="evenodd" clip-rule="evenodd" d="M161.604 412.354c.826 3.306 4.133 6.611 6.613 10.95 5.786 10.331 11.365 26.653 15.911 37.603 7.026 17.355 14.465 32.644 24.591 46.28 19.838 26.446 49.595 49.38 81.418 62.19 2.067-5.372 7.233-4.546 15.499-21.075 15.498-30.991.619-82.436-27.691-102.684-10.332-7.645-16.532-3.512-29.963-3.306-28.931.207-30.377-21.074-35.957-34.71-5.372.62-13.018 2.686-17.771 2.686-6.819 0-9.506-3.306-13.019-4.752-13.638-2.066-2.893-13.016-10.952-8.678 0 6.818 2.686 3.099 3.1 11.777-8.679.413-4.547 1.033-8.06-3.306-2.686 5.372-2.479-1.033-3.719 7.025z" fill="#1BAFD0"/><path fill-rule="evenodd" clip-rule="evenodd" d="M446.774 355.95c2.273 3.719 7.439 7.231 9.919 11.776 9.919-.413 18.805 1.24 23.971 7.438 4.546 5.579 7.646 15.703 5.579 25.62.827 3.099 5.373 7.438 9.506 11.983l79.972 78.305c7.645-7.025 23.97-37.603 27.897-45.661 5.372-10.743 17.771-41.115 16.738-55.164v-4.959c-7.853 4.545-43.189-7.025-55.794-14.463-10.746-6.198-27.897-19.627-34.717-29.751-2.066-3.099-.826-2.686-3.513-4.959-.413 4.132-1.859 3.306-1.033 7.232.827 4.338 0 .206 3.306 4.545l-2.273 4.132-1.859-2.479c-2.48-1.446-13.226-.62-16.325-.62v7.438c-8.473 0-14.259-1.446-17.565 2.066 0 0-.207.826-.414.62 0-.207-.206.413-.413.826-7.026-3.306 5.58 3.926-1.86-1.653-3.926-3.099-1.859-1.653-14.051-1.859 1.859 1.24 4.132.413 7.232 2.273.207 0 4.546 3.925 4.546 3.925 3.927 4.339 2.893 7.231 2.273 13.43-3.099-1.24-3.719-1.447-4.339-4.752-.827-3.719 1.033-5.992-3.72-7.025-.206-.207-.62-.207-.826-.207-13.432-2.479-16.739 3.306-22.318-.206 1.24-2.893 2.48-1.24 5.166-3.099-2.48-1.447.207-.827-3.926-.62l-2.48.413c-.207-.413-.62 0-.826 0-1.034-1.446-1.654-2.479-2.894-3.719-.413-.413-1.239-1.24-1.653-1.446-8.472-7.231-1.653-5.579-7.439-6.405 2.067 4.752 2.686 1.653 4.133 7.025z" fill="#19A9C9"/><path fill-rule="evenodd" clip-rule="evenodd" d="M617.876 311.736c-5.992-32.025-25.004-63.429-41.122-82.024-9.092-10.744-19.218-20.868-31.203-29.958-8.266-6.199-26.864-19.422-38.643-22.934 23.971 55.371-7.646 90.081 12.192 139.668 1.653 4.545 0 4.338 3.926 5.785 3.1-1.653 2.273.206 2.273-5.579h17.152l.62-3.719c0-.413.207-.413.413-.62l32.237-.206 1.86-4.339c0-.413.206-.62.413-.826h28.93c5.58-.414 2.273.206 3.72-1.447l1.446-2.272c.207-.414.207-.62.414-.827.826 2.893 3.306 3.719 2.893 11.364l2.479-2.066z" fill="#88C8D7"/><path fill-rule="evenodd" clip-rule="evenodd" d="M48.156 350.165c4.96 6.611 15.705 14.669 23.764 20.041 20.458 14.049 46.702 15.702 64.267 23.966 13.432 6.405 15.498 10.744 23.764 17.149l1.653 1.033c1.24-8.058 1.033-1.653 3.72-7.025 3.513 4.339-.62 3.719 8.059 3.306-.414-8.678-3.1-4.959-3.1-11.777 8.059-4.339-2.686 6.612 10.952 8.678-2.686-8.678-2.066.413-5.373-17.769-2.066-10.95-8.885-48.346-10.952-53.924-1.033 4.545 1.447 1.652-1.86 3.512-8.059-3.926-22.111-5.165-30.996-9.091-4.133-1.859-9.299-3.925-13.226-6.198l-11.985-7.438c-1.653 2.479.207.413-2.893 2.273l-5.166 2.892c-7.026 4.132-11.366 2.273-20.458 2.273l-.207 11.777H60.968l-.827 15.908s-.62-.206-.826-.206c-2.067 0-.62-.413-2.48.413-2.273 1.446-.827.62-1.653 1.859-.207.207-.414 1.034-.414 1.24l-.413 1.24c-6.2-7.232-5.166-5.579-6.2-4.132z" fill="#71BDCE"/><path fill-rule="evenodd" clip-rule="evenodd" d="M393.666 461.733l-2.686 1.447c.62 5.991 1.033 2.066-.827 7.644-5.372 17.769 18.392 27.273 27.484 46.487 2.687 2.893 3.72 3.306 5.58 7.645 1.859 1.033.206 0 1.859 1.446 6.613 5.992 36.577 47.107 36.783 52.065 2.893 1.447.62-.413 3.1 2.686 3.1 3.719 10.332 17.769 14.052 21.694 4.753-2.479 10.952-8.058 15.911-11.363 3.72-2.273 13.019-6.818 15.912-9.298l-10.126-8.884c-1.033-.826-2.066-1.446-3.099-2.273-5.373-4.132-8.886-8.057-13.019-11.776-1.446-1.24-2.273-1.86-3.513-2.893l-9.712-8.677c-4.96-4.752-7.233-7.645-12.192-12.397-12.192-11.983-40.503-46.693-46.495-52.479 1.859-5.991 3.306-1.652 1.653-10.743 4.959-1.86 3.926-2.893 10.952-10.537 1.447-1.653 3.1-4.752 2.066-8.058-1.653-4.339-2.893-1.859-5.372-4.752 3.306-4.545 7.439-.826 5.786-11.363 10.332-3.719 7.026-5.579 6.819-14.67 0-3.719 11.985-17.768 15.912-20.661 10.332-8.057 7.439-8.057 24.384-12.396-.827-3.719-5.373-6.612-5.58-7.645-8.472 1.447-14.465 4.752-19.631 9.504l-2.893 2.686c-.207 0-.413.207-.413.414-11.986 11.156-11.366 16.528-16.738 23.14-2.687 3.305-12.399 3.719-8.473 16.115-12.605 4.752 0 10.124-7.646 12.603-2.273.62-2.273-.413-6.406.207-.206 1.033-2.066 5.578-2.066 5.578-.207 2.066.62 1.653.62 5.166 0 9.297-1.24 5.578 2.686 14.049l-3.513 2.066c-3.513-2.479-7.439-9.297-11.159-11.777z" fill="#E8836F"/><path fill-rule="evenodd" clip-rule="evenodd" d="M95.27 297.686c-1.032-5.992-3.719-7.438-1.032-13.223 6.199-3.512 51.248-.207 61.167.62-1.24-11.157-4.34-23.14-6.82-34.71-1.446-7.645-4.546-28.719-6.819-34.504-8.886-2.066-12.605-9.297-20.458-12.397-3.926 10.744-3.926 13.43-10.125 22.521-11.78 17.148-26.658 30.371-21.905 60.329.62 3.306 2.686 9.504 5.993 11.364z" fill="#1BAFD0"/><path fill-rule="evenodd" clip-rule="evenodd" d="M111.183 481.155c2.479 5.578 3.513 10.33 9.299 11.57 17.151 3.925 18.184-27.892 14.465-43.595-3.513-14.256-7.646-18.388-15.292-25.619-6.199-5.785-15.085-12.397-26.037-15.083-11.16-2.479-27.07-2.479-34.923 2.48-1.86 12.603 15.705 12.809 37.816 44.214 6.199 8.677 9.919 15.289 14.672 26.033z" fill="#71BDCE"/><path fill-rule="evenodd" clip-rule="evenodd" d="M262.033 397.685c2.893 1.653 3.513 3.099 5.787 5.371 15.705 16.116 58.48 20.868 73.978 31.612 20.045 14.049 22.938 22.107 36.163 34.71 2.48-2.893 1.034-5.579 5.373-7.851-1.446-2.893-2.686-6.199-2.48-10.537 0-6.612-.206-5.166-.826-10.951l-1.86 2.067c-2.273-7.438-8.886-12.397-13.845-16.116-5.373-4.132-13.019-6.198-19.838-9.504-7.439-3.512-12.192-6.405-17.565-12.19-1.86-2.066-5.166-5.578-7.026-8.058l-4.753-6.198c-1.24-1.653.207 0-1.653-1.859l-6.613 1.446c-4.132-1.653-38.642 6.198-44.842 8.058z" fill="#E8836F"/><path fill-rule="evenodd" clip-rule="evenodd" d="M311.422 297.273c3.926-10.95-4.96-18.388-15.705-16.735l-57.654 11.363c-9.299 1.86-20.665 1.86-23.971 10.331-4.753 11.57 5.166 18.594 16.118 16.735 9.299-1.446 19.218-3.513 28.517-5.372 9.506-2.066 19.425-3.512 28.93-5.785 9.713-2.066 20.872-2.273 23.765-10.537z" fill="#178CA6"/><path fill-rule="evenodd" clip-rule="evenodd" d="M121.308 203.472c7.853 3.1 11.572 10.331 20.458 12.397l-9.919-53.718c-3.72-1.446-3.513-1.86-6.406-3.513-8.266-4.752-23.764-12.396-33.27-12.603-8.886-.413-8.472 1.653-14.672 3.099-.413 10.124 0 12.81 5.166 19.008 11.78 14.05 10.953 13.637 25.004 24.587 2.687 2.066 12.193 9.091 13.639 10.743z" fill="#FA9E85"/><path fill-rule="evenodd" clip-rule="evenodd" d="M95.27 297.686c5.167.413 1.24 1.446 6.82 3.306 7.646 7.644 45.875 15.909 59.721 16.115l-6.406-32.024c-9.919-.826-54.968-4.132-61.167-.62-2.687 5.785 0 7.231 1.033 13.223z" fill="#E8836F"/><path fill-rule="evenodd" clip-rule="evenodd" d="M92.791 122.689c3.926 2.686 5.58 5.785 8.679 8.264 3.513 3.099 5.373 4.752 8.886 7.231 4.959 3.719 14.258 12.19 19.218 14.05l-9.299-45.661c-1.86-3.925-31.41-14.876-35.543-4.545-1.653 10.95 3.72 14.049 8.06 20.661z" fill="#FA9E85"/><path fill-rule="evenodd" clip-rule="evenodd" d="M106.843 314.628l11.985 7.438c3.927 2.273 9.093 4.339 13.226 6.198 8.885 3.926 22.937 5.165 30.996 9.091 3.307-1.859.827 1.033 1.86-3.512l-3.099-16.736c-13.846-.206-52.075-8.471-59.721-16.115-4.34-1.446-2.686-1.653-7.44-3.513 1.654 6.199 2.274 5.372 5.994 9.711l6.199 7.438z" fill="#19A9C9"/><path fill-rule="evenodd" clip-rule="evenodd" d="M407.305 405.949c4.339 2.479 2.893 1.446 5.786 5.372l7.646-8.884c9.299-10.951 14.465-16.116 27.897-23.76 9.299-5.372 18.185-3.306 24.797 2.686 4.133 3.925 7.646 20.247 12.812 19.421 2.067-9.917-1.033-20.041-5.579-25.62-5.166-6.198-14.052-7.851-23.971-7.438-16.531 3.1-25.417 10.331-34.923 20.661-8.472 9.091-5.579 4.339-14.465 17.562z" fill="#E8F6F9"/><path fill-rule="evenodd" clip-rule="evenodd" d="M423.217 524.956c-1.86-4.339-2.893-4.752-5.58-7.645-3.513 4.546-3.306 7.438-11.572 6.818-6.199-.619-9.299-3.719-11.779-7.851-5.166-8.471-6.406-19.421-6.819-30.784-5.579 2.272-3.72 2.479-9.712-.62-.62 19.008 6.406 49.586 28.31 49.586 9.092 0 12.812-5.165 17.152-9.504z" fill="#D8E3E7"/><path fill-rule="evenodd" clip-rule="evenodd" d="M380.028 440.04c.62 5.785.826 4.338.826 10.95-.206 4.339 1.034 7.644 2.48 10.537l7.646 1.653 2.686-1.446c1.447-1.653 2.48-3.306 4.133-5.992 2.687-4.546 9.093-7.645 6.2-13.636-2.48-4.959-2.893.413-5.373-6.199-2.48-1.859-2.273-2.066-6.406-2.272-6.406 2.272-9.506-.827-12.192 6.405z" fill="#1E3359"/><path fill-rule="evenodd" clip-rule="evenodd" d="M392.22 433.635c4.133.206 3.926.413 6.406 2.272 5.166-2.479 6.819-2.479 5.992-10.95 6.2-1.033 9.3-5.992 8.473-13.636-2.893-3.926-1.447-2.893-5.786-5.372-9.299 0-10.746 5.992-10.539 14.876-4.753 3.512-6.199 5.991-4.546 12.81z" fill="#1594CE"/><path fill-rule="evenodd" clip-rule="evenodd" d="M203.966 376.817c-.826 8.265 14.465 9.917 14.672 0 .207-9.091-13.639-10.743-14.672 0z" fill="#768EA8"/></g><defs><filter id="filter0_d_135_10" x="0" y=".331" width="643.791" height="626.516" filterUnits="userSpaceOnUse" color-interpolation-filters="sRGB"><feFlood flood-opacity="0" result="BackgroundImageFix"/><feColorMatrix in="SourceAlpha" values="0 0 0 0 0 0 0 0 0 0 0 0 0 0 0 0 0 0 127 0" result="hardAlpha"/><feOffset dy="4"/><feGaussianBlur stdDeviation="10"/><feComposite in2="hardAlpha" operator="out"/><feColorMatrix values="0 0 0 0 0 0 0 0 0 0 0 0 0 0 0 0 0 0 0.5 0"/><feBlend in2="BackgroundImageFix" result="effect1_dropShadow_135_10"/><feBlend in="SourceGraphic" in2="effect1_dropShadow_135_10" result="shape"/></filter><filter id="filter1_d_135_10" x="249.354" y="134.465" width="211.339" height="315.64" filterUnits="userSpaceOnUse" color-interpolation-filters="sRGB"><feFlood flood-opacity="0" result="BackgroundImageFix"/><feColorMatrix in="SourceAlpha" values="0 0 0 0 0 0 0 0 0 0 0 0 0 0 0 0 0 0 127 0" result="hardAlpha"/><feOffset dy="4"/><feGaussianBlur stdDeviation="2"/><feComposite in2="hardAlpha" operator="out"/><feColorMatrix values="0 0 0 0 0 0 0 0 0 0 0 0 0 0 0 0 0 0 0.25 0"/><feBlend in2="BackgroundImageFix" result="effect1_dropShadow_135_10"/><feBlend in="SourceGraphic" in2="effect1_dropShadow_135_10" result="shape"/></filter></defs></svg>