<svg width="629" height="592" fill="none" xmlns="http://www.w3.org/2000/svg"><path fill-rule="evenodd" clip-rule="evenodd" d="M467.84 266.332l4.59-.34c-.68 19.733-13.294 33.206-33.558 33.376l.306-5.341c-24.922-1.633-38.59-32.186-20.944-50.661 7.276-7.655 20.4-11.908 32.98-4.865 9.52 5.342 14.858 13.337 16.626 27.831zm-95.778-41.338c-1.904 4.525-7.616 3.504-9.962.204-12.716-10.513-3.06-17.488-11.118-23.952-6.596-5.274-11.016-11.466-11.696-23.748 19.686 2.552 34.544 4.355 55.114 2.314-.68 11.908-4.318 16.705-11.458 22.659-9.044 7.519 2.04 11.772-10.88 22.523zm-34.884-65.018l7.786-12.112c3.162-2.178 5.848-2.416 10.2-2.62 3.264 4.559 7.718 18.27 8.942 24.19l-.238.579c.918 1.429 1.802-.544.238 1.327l-26.044-.851-.884-10.513zm59.33-19.971c3.672 5.273 7.072 12.52 6.596 21.23-.204 3.913-1.088 7.315-2.72 10.649-1.666 3.402-3.4 5.954-6.664 7.757-4.08-11.874-27.914-38.003-36.584-42.46 3.502-7.111 14.552-8.438 21.488-7.451 7.514 1.088 14.994 6.056 17.884 10.275zm5.576-16.536c6.222 3.913-3.706 9.357-4.59 9.391-6.12.102-.85-8.064 4.59-9.391zm-63.138 4.287c-1.904 3.267.578.919-2.754 2.688-2.958-2.109-7.14-4.559-6.12-9.935 4.42-.306 7.242 3.879 8.874 7.247zm25.296-15.65c0-8.132 5.236-7.621 5.236 1.123 0 7.893-5.236 7.11-5.236 0v-1.123zm-201.28 177.191l46.172 2.688 1.836-3.028c-20.196-1.939-15.266-22.829-15.3-40.487-.034-26.81 3.91-25.926 29.308-26.062l1.36-10.479c-2.21-5.171-6.426-15.106.918-17.045-1.462-2.382 1.02-1.735-9.418-2.076-28.73-.918-22.236-13.881-22.236-54.981 0-41.27.918-36.098 51.238-33.955 14.45.613 30.464-1.463 34.408 10.751 2.04 6.261 1.02 33.717 1.02 42.189 0 13.745 2.72 30.076-7.31 35.996-9.996 5.886-31.008-2.585-39.338 1.872 3.332 1.531 1.734 1.224 4.998 3.232l3.706-1.565c2.074 2.109.17-.273 1.734 2.824 15.776-.068 17.646 10.887 19.652 25.347 17.612.374 35.258 1.667 52.666 2.279 24.106.885 20.774 12.01 20.774 33.955 0 19.563 2.21 34.227-20.4 33.105-17-.817-34.884-.987-51.612-2.45l2.89 38.786 190.128 8.54c11.458.987 21.726 1.055 34 1.701 10.472.544 15.98-6.634 14.892-19.325l-.17-109.52.408-56.852c-7.208 3.81-15.98 18.508-23.46 20.175-5.814-2.518-11.73-13.269-16.728-17.488l-27.71 27.253c-3.128-1.701-4.59-3.845-6.766-6.635l33.354-32.73c4.386-.952 15.674 13.473 18.428 17.658 5.95-6.873 18.258-15.787 22.678-22.931l.204-2.45-8.534-2.824c3.604-2.007 5.78-1.973 8.432-4.763.714-19.087 3.468-38.038-13.294-40.385-88.842-2.382-179.112-8.166-267.988-12.045-76.704-3.368-64.736-14.561-64.736 71.415 0 33.376 1.496 112.548-.204 140.31z" fill="#FEFFFF"/><path fill-rule="evenodd" clip-rule="evenodd" d="M120.7 276.403c1.836 2.279 4.998 4.763 8.024 5.477 3.4.817 2.992-.374 12.682 1.634 5.202 1.088 3.468-2.076 9.214 3.062 3.23 2.892-.612 2.211 12.342 2.721 1.7-27.762.204-106.934.204-140.31 0-85.976-11.968-74.783 64.736-71.415 88.876 3.879 179.146 9.663 267.988 12.044-5.1-20.447-25.5-44.331-44.608-55.797-14.416-8.642-37.876-21.435-62.73-23.408h-12.818c-.476.034-.952.102-1.428.136-14.858 1.565-25.364 8.302-34.782 15.48-10.336 7.86-18.122 19.496-24.48 25.824-5.95 5.886-24.854 13.507-35.904 14.358-17.578 1.36-29.002-.17-43.316-5.648-31.994-12.248-41.378-37.051-69.632-17.998-35.972 24.258-58.004 98.871-57.834 144.427.068 18.033-.136 32.935 2.04 48.245 1.666 11.84 5.984 32.73 10.302 41.168zM557.702 425.832c2.312 3.538-2.04 5.92-5.134 8.982-3.264 3.232-5.644 5.716-8.942 8.914-4.624 4.491-5.44 3.64-5.406 12.52.034 5.138-.272 10.956.102 15.719-4.964-1.463-3.604 1.939-3.57-14.528.034-5.035 1.156-11.908-.986-16.331-2.958-6.022-14.586-11.364-15.878-18.645 4.828.885 6.086 3.573 8.806 6.397 4.08 4.219 3.502 4.491 7.922 6.43l.136-56.07c0-8.471-19.618-17.079-17.85-23.714 3.706-.714 8.364 6.226 12.478 10.241 2.992 2.892 1.462 1.939 5.236 3.607l.136-57.193c0-8.234-13.804-11.84-14.11-19.835 4.08.272 4.93 2.279 7.14 4.627l6.8 5.341c.306-5.477-2.006-22.251 2.856-22.761 2.108 5.512.748 24.292.918 31.607 5.372-2.585 12.172-13.915 17.272-13.983 1.462 8.199-17.34 14.494-17.34 23.952l.204 56.886c4.012-2.211 9.52-8.641 13.158-12.282 1.972-1.973 4.794-5.273 6.8-6.804 2.346-1.804 5.066-1.702 3.026 1.939-1.088 1.905-10.574 10.785-12.818 13.065-3.638 3.606-10.37 7.621-10.37 14.221l.204 54.675c5.95-3.266 13.974-15.514 19.21-16.977zm53.21-27.627v3.641c-2.516 8.607-21.964 14.119-12.954 28.307 9.758 15.378-1.87 20.55-9.384 31.743 5.236.136 7.854.374 8.942 4.491-6.154.51-32.198 5.614-37.978-2.245 3.026-1.429 5.406-2.246 10.064-2.246-2.754-3.742-4.896-1.871-5.576-6.702l-9.792 9.186c-2.516 3.096-1.02.578-2.516 4.219 5.338-1.974 10.812 1.122 15.64 2.245-1.496 5.682-5.372 4.865-12.07 5.818-15.878 2.178-35.054.885-49.334-2.45.442-5.307.612-4.082 5.95-5.239 4.624-.987 6.052-1.701 9.656-.374-2.448-6.056-2.278-3.267-7.616-9.085-38.964-42.392 15.47-42.12-12.75-69.985-9.18-9.05-27.54-21.911-8.228-34.465 10.812-7.043 26.86-13.405 18.972-29.906l-2.89-4.049-.17-109.52c5.032 2.722 10.642 8.063 15.266 11.942 16.83 14.154 5.78 6.941 16.83 9.969 16.694 4.559 8.5 19.971 13.668 37.731 5.27 17.93 19.346 19.155 14.314 38.038-1.904 7.213-13.192 18.372-8.704 30.11 1.53 4.015 4.658 5.308 7.106 6.295-1.02-4.185-.68.034-.034-4.457.442-2.756.442-1.531 1.122-4.594 1.53-6.94-2.346-18.882 10.064-19.018 4.216-.068 6.188 1.02 7.99 3.334 1.836 2.415 2.108 5.035 2.142 7.927.374 24.123 10.948 20.108 10.914 31.335-.034 10.922-15.98 18.067.408 28.852 4.522 2.994 8.024 4.763 10.948 9.152zM408.816 423.654l6.188 2.518-1.904 7.757c4.012 1.735 5.984 3.641 8.398 6.873l-4.488 6.838c-6.902-3.266-7.718-10.104-17.442-8.267-2.312 9.866 10.948 12.69 12.342 23.952 1.598 13.031-8.364 16.229-19.72 14.494l-3.502 6.43c-3.366-.919-4.046-1.395-6.698-3.096l2.21-6.941c-5.1-4.082-6.392-3.844-9.826-8.812 1.564-3.164 2.21-4.048 5.372-6.94l2.618 1.939c3.978 3.538 8.466 9.731 16.354 7.179 2.754-9.493-8.67-12.453-11.56-22.115-3.128-10.615 3.74-17.794 18.428-15.787l3.23-6.022zm35.7 63.861c-4.862 2.892-9.69 8.676-17.476 9.867 45.662-32.016 16.83-98.122-35.02-93.869-17.204-2.144-59.602 32.798-29.036 78.525-4.08 3.266-35.36 10.819-18.19 27.15 21.59 20.584 102.034 16.025 110.194-4.457 4.08-10.241-5.134-14.086-10.472-17.216z" fill="#51C4D3" fill-opacity=".43"/><path fill-rule="evenodd" clip-rule="evenodd" d="M42.466 330.159c0 6.737.714 10.819 1.598 17.284.918 6.498 1.224 11.533 2.074 18.032 6.12 46.203.476 71.55 3.196 115.44l-.034 14.119 12.138 1.634 3.196-19.121 11.016-66.243c3.638-21.911 4.794-51.103 4.794-73.456h1.122c0 11.024 2.176 22.115 3.332 32.424 3.026 26.98-.646 75.803 1.292 107.275l-.102 4.661c2.482.306 3.808.68 6.698 1.088 2.142.341 4.284.477 5.984 2.076l.544-6.703c1.7-3.164 10.71-62.602 12.07-70.733 7.582-45.421-1.87-51.341-.646-75.668-1.904-4.355-3.162-2.653-1.156-7.825l-.102-2.96c-21.624 5.614-41.888 15.821-67.014 8.676z" fill="#51C4D3"/><path fill-rule="evenodd" clip-rule="evenodd" d="M227.256 194.884l8.364-.204c8.33-4.457 29.342 4.014 39.338-1.872 10.03-5.92 7.31-22.251 7.31-35.996 0-8.472 1.02-35.928-1.02-42.189-3.944-12.214-19.958-10.138-34.408-10.751-50.32-2.143-51.238-7.315-51.238 33.955 0 41.1-6.494 54.063 22.236 54.981 10.438.34 7.956-.306 9.418 2.076z" fill="#126E82"/><path fill-rule="evenodd" clip-rule="evenodd" d="M268.464 346.728c-.646 10.956 1.156 25.347 3.91 34.704 68.34 0 116.79-12.112 178.194-37.494 2.278-.952 2.618-.884 4.794-1.939l4.794-3.266-190.128-8.54c.102 5.342 1.292 13.405-1.564 16.535z" fill="#51C4D3" fill-opacity=".43"/><path fill-rule="evenodd" clip-rule="evenodd" d="M261.222 261.943c1.666 9.56 4.726 17.896 5.916 29.464 16.728 1.463 34.612 1.633 51.612 2.45 22.61 1.122 20.4-13.542 20.4-33.105 0-21.945 3.332-33.07-20.774-33.955-17.408-.612-35.054-1.905-52.666-2.279-.612 6.056-2.924 16.365-3.06 20.754-.238 8.165 5.61 6.464-1.428 16.671z" fill="#126E82"/><path fill-rule="evenodd" clip-rule="evenodd" d="M40.222 317.4c4.76 1.293 8.126 3.505 13.192 3.573 18.53-2.62 16.49-12.759 21.42-17.76 7.514-7.587 16.558-4.933 1.394-21.503-4.148-4.525-6.562-3.64-12.002-7.008-5.168-3.165-3.944-7.485-7.038-13.065-5.406-9.731-9.792-18.475-6.256-29.702l2.006 7.655c.102.272.272.714.442 1.021-.102-4.866 2.924-2.722 8.704-4.9 3.672-1.361 4.964-2.892 8.296-4.083 5.61 13.167-.986 13.303 8.704 19.292 5.474 3.402 13.056 9.016 18.088 11.057l-.578-33.649c1.836-13.031-9.282-18.78-13.94-25.687l-2.788-.544-1.7 2.415c-8.5.034-11.492-3.436-17.85-6.907-16.32 4.73-19.006 32.356-21.046 51.001l-.204 51.307c.068 6.6 1.156 9.764 1.156 17.487z" fill="#D62489"/><path fill-rule="evenodd" clip-rule="evenodd" d="M212.194 347.443c-.646 4.253-2.686 18.916-4.454 21.434 0 12.419-4.658 30.519 0 40.59 9.758 3.062 17.918.952 27.914.034l3.366-.579c9.554-2.62 16.184-4.049 25.704-7.587 3.026-1.667 6.12-3.164 7.718-6.6 2.142-4.593.306-8.166-.068-13.303-2.754-9.357-4.556-23.748-3.91-34.704l-9.588 2.45c-6.358 2.824-16.626 2.245-24.378 2.007-8.67-.238-15.708-3.164-20.74-5.375l-1.564 1.633z" fill="#51C4D3"/><path fill-rule="evenodd" clip-rule="evenodd" d="M232.254 518.919v16.263c2.856 3.368 1.53 6.022.952 10.581l-29.784-3.13c1.802-6.533 2.856-.545 18.632-10.037l-2.006-11.092c-8.262-1.02-34.578 7.928-32.266 20.55 2.04 11.024 23.46 17.386 35.768 19.155 4.556.647 9.214 1.055 13.906 1.293h14.79c7.378-.34 14.552-1.191 21.114-2.518 9.622-1.939 36.244-10.104 29.308-22.999-4.794 2.109-17.238 10.989-21.692 10.343-.136-4.253 7.82-9.799 9.758-18.066l-1.428-3.641c-4.42-1.021-7.276-2.347-12.07-3.606-4.352-1.123-8.364-1.838-14.076-2.654-12.206-1.769-19.108-.442-30.906-.442z" fill="#51C4D3" fill-opacity=".43"/><path fill-rule="evenodd" clip-rule="evenodd" d="M229.84 247.041c-5.134 3.402-7.344 11.33-10.982 18.066-4.148 7.689-6.936 11.228-6.46 22.421 3.026 3.777 6.052 8.302 7.582 13.711l.646 3.981c4.114-4.525 1.836-17.556 8.092-25.721l.17 5.137c4.012-2.756 8.704-6.668 16.626-6.09.68 6.907 2.04 13.643 2.618 20.21.782 9.322-3.808 12.35-7.242 16.637 1.394 1.429.714-1.973 2.278 3.845.816 3.062.238 3.606.238 6.328-.102 8.131 2.482 10.615 9.826 15.957 3.842 2.79 4.25 2.075 5.644 7.655l9.588-2.45c2.856-3.13 1.666-11.193 1.564-16.535l-2.89-38.786c-1.19-11.568-4.25-19.904-5.916-29.464-9.01 1.021-13.838-.034-19.822-4.695-.068-5.342 2.006-4.559 2.074-11.806-4.896 2.722-4.59 3.81-12.274 4.525-1.768-1.565-1.768 2.245-1.36-2.926z" fill="#FF5E5C"/><path fill-rule="evenodd" clip-rule="evenodd" d="M61.438 496.668c13.498 13.643 16.49 6.702 16.592 15.446-4.454 1.089-27.098-5.001-31.042-7.723-.17-5.172.136-5.92 2.312-9.357l.034-14.119c-7.956.17-22.474 6.634-24.752 14.902v4.355c.816 2.824 3.196 5.784 7.854 8.676 20.434 12.69 67.014 13.099 88.978 1.905 27.234-13.881-1.496-30.416-22.1-32.084l-.544 6.703c3.196 2.109 5.134 4.015 9.01 6.192 14.076 7.757 2.856 7.859 2.21 7.791l-26.554-7.008c-.068-5.172-.612-6.669 2.652-10.139l.102-4.661H64.634l-3.196 19.121z" fill="#51C4D3" fill-opacity=".43"/><path fill-rule="evenodd" clip-rule="evenodd" d="M53.38 240.61c8.534 12.861 1.122 15.787 17.51 24.055 9.078 4.559 19.686 9.9 28.526 13.643 2.618 1.803 4.182 2.382 6.698 3.504 4.114 1.667 7.446 3.573 11.526 5.41 6.052 2.688 7.14 2.007 9.52 7.043l1.292.272c4.998 1.803 10.982 1.361 15.742 1.735 7.616.612 11.866 1.395 18.972 2.28 9.758 1.667 19.516 3.708 29.138 5.545 4.318.783 11.084 2.484 15.3 2.178 7.038-.545 7.48-4.185 12.376-5.036-1.53-5.409-4.556-9.934-7.582-13.711l-1.428 1.429-1.836 3.028-46.172-2.688c-12.954-.51-9.112.17-12.342-2.721-5.746-5.138-4.012-1.974-9.214-3.063-9.69-2.007-9.282-.816-12.682-1.633-3.026-.714-6.188-3.198-8.024-5.477-4.454-1.157-2.108-1.293-5.644-3.062-4.42-2.076-14.994-8.574-17.884-11.364-5.032-2.041-12.614-7.655-18.088-11.058-9.69-5.988-3.094-6.124-8.704-19.291-3.332 1.191-4.624 2.722-8.296 4.083-5.78 2.178-8.806.034-8.704 4.899zM239.02 412.154c2.652 3.981-.51 5.206 3.638 15.923 2.04 5.24 4.148 9.152 6.426 13.711 4.556 9.153 8.806 18.781 13.396 27.933 7.99 15.991 19.176 41.815 26.826 55.9l1.428 3.641c4.76-.783 7.718-2.11 10.812-3.709-4.42-9.05-27.744-82.574-34.272-98.599-3.026-7.417-2.55-7.485-2.55-17.283l-25.704 2.483zM220.048 521.504l2.006 11.092 10.2 2.586v-16.263c.646-35.316-2.822-76.314 3.4-106.458l-27.914.272c0 25.415 1.496 30.689 5.1 55.253l7.208 53.518zM439.178 294.027l.408-28.818 28.254 1.123c-1.768-14.494-7.106-22.489-16.626-27.831-12.58-7.043-25.704-2.79-32.98 4.865-17.646 18.475-3.978 49.027 20.944 50.661z" fill="#FFB5B5"/><path fill-rule="evenodd" clip-rule="evenodd" d="M53.414 320.973c5.984 3.81 23.936 4.627 30.43 4.423 17.884-.51 19.414-5.172 25.636-7.757 1.598-3.301.17-3.743-1.53-8.404-1.394-3.777-2.108-6.226-3.366-10.071-1.734-5.103-4.76-15.514-5.168-20.856-8.84-3.742-19.448-9.084-28.526-13.643-16.388-8.268-8.976-11.194-17.51-24.054-.17-.307-.34-.749-.442-1.021l-2.006-7.655c-3.536 11.227.85 19.971 6.256 29.702 3.094 5.58 1.87 9.9 7.038 13.065 5.44 3.368 7.854 2.483 12.002 7.008 15.164 16.57 6.12 13.916-1.394 21.503-4.93 5.001-2.89 15.14-21.42 17.76z" fill="#BA036E"/><path fill-rule="evenodd" clip-rule="evenodd" d="M134.402 301.308c2.856-1.6 9.214 6.77 11.526 9.016 4.012 3.844 7.276 7.008 11.05 10.785-2.38 4.491-4.59 3.334-6.732 8.914 4.794 2.654 2.074 2.654 8.636 8.676 2.244 2.075 2.788 2.109 4.964 3.981 6.494 5.477 17.714 15.548 25.976 17.521.306-9.594 4.08-4.899 6.63-10.275.544-1.122.748-3.674 1.224-5.375 7.446-3.402 3.468 2.075 9.928-6.839 2.55-3.538 5.202-6.226 6.902-9.969-11.73-.68-26.996-.306-38.046-1.837-13.396-1.871-13.294-13.813-13.294-27.354-7.106-.885-11.356-1.667-18.972-2.28-4.76-.374-10.744.068-15.742-1.735v.851c1.938 4.218.85 4.014 5.95 5.92z" fill="#51C4D3" fill-opacity=".43"/><path fill-rule="evenodd" clip-rule="evenodd" d="M210.97 288.957l1.428-1.429c-.476-11.193 2.312-14.732 6.46-22.421 3.638-6.737 5.848-14.664 10.982-18.066.85-1.463 1.258-1.973 1.428-4.831-6.8-4.083-6.97-10.82-6.29-19.802-25.398.136-29.342-.748-29.308 26.062.034 17.658-4.896 38.548 15.3 40.487z" fill="#126E82"/><path fill-rule="evenodd" clip-rule="evenodd" d="M362.1 225.198l.34-.51 9.622.306c12.92-10.751 1.836-15.004 10.88-22.523 7.14-5.954 10.778-10.751 11.458-22.66-20.57 2.042-35.428.239-55.114-2.313.68 12.282 5.1 18.474 11.696 23.748 8.058 6.464-1.598 13.439 11.118 23.952z" fill="#FE8BC9"/><path fill-rule="evenodd" clip-rule="evenodd" d="M509.184 130.002c-2.652 2.79-4.828 2.756-8.432 4.763l8.534 2.824c2.074 2.654 1.156 1.225-.204 2.45-4.42 7.144-16.728 16.058-22.678 22.931-2.754-4.185-14.042-18.61-18.428-17.658l-33.354 32.73c2.176 2.79 3.638 4.934 6.766 6.635l27.71-27.253c4.998 4.219 10.914 14.97 16.728 17.488 7.48-1.667 16.252-16.365 23.46-20.175 2.006-3.267 4.794-6.873 8.942-7.996.374 4.457 1.87 6.771 2.244 11.194 2.55-2.96 2.992-5.172 4.454-8.948 2.584-6.601 10.744-23.782 11.152-29.056-3.672 1.769-23.256 9.765-26.894 10.071z" fill="#126E82"/><path fill-rule="evenodd" clip-rule="evenodd" d="M238.17 217.169c1.564 4.423 4.216 15.888 4.148 21.332l1.156 6.941c-.068 7.247-2.142 6.464-2.074 11.806 5.984 4.661 10.812 5.716 19.822 4.695 7.038-10.207 1.19-8.506 1.428-16.671.136-4.389 2.448-14.698 3.06-20.754-2.006-14.46-3.876-25.415-19.652-25.347-3.57 1.497-4.318 3.266-6.086 7.791-1.36 3.402-1.734 6.192-1.802 10.207z" fill="#132C33"/><path fill-rule="evenodd" clip-rule="evenodd" d="M214.506 327.743c3.978-3.844 2.652-3.606 5.032-8.403.102-.204.272-.579.476-.851l.612-13.269-.646-3.981c-4.896.851-5.338 4.491-12.376 5.036-4.216.306-10.982-1.395-15.3-2.178-9.622-1.837-19.38-3.878-29.138-5.545 0 13.541-.102 25.483 13.294 27.354 11.05 1.531 26.316 1.157 38.046 1.837zM534.582 302.294l-6.8-5.341c-2.21-2.348-3.06-4.355-7.14-4.628.306 7.996 14.11 11.602 14.11 19.836l-.136 57.193c-3.774-1.668-2.244-.715-5.236-3.607-4.114-4.015-8.772-10.955-12.478-10.241-1.768 6.635 17.85 15.242 17.85 23.714l-.136 56.07c-4.42-1.939-3.842-2.211-7.922-6.43-2.72-2.824-3.978-5.512-8.806-6.397 1.292 7.281 12.92 12.623 15.878 18.645 2.142 4.423 1.02 11.296.986 16.331-.034 16.467-1.394 13.065 3.57 14.528-.374-4.763-.068-10.581-.102-15.719-.034-8.88.782-8.029 5.406-12.52 3.298-3.198 5.678-5.682 8.942-8.914 3.094-3.062 7.446-5.444 5.134-8.982-5.236 1.463-13.26 13.711-19.21 16.977l-.204-54.675c0-6.6 6.732-10.615 10.37-14.221 2.244-2.28 11.73-11.16 12.818-13.065 2.04-3.641-.68-3.743-3.026-1.94-2.006 1.531-4.828 4.832-6.8 6.805-3.638 3.641-9.146 10.071-13.158 12.282l-.204-56.886c0-9.458 18.802-15.753 17.34-23.952-5.1.068-11.9 11.397-17.272 13.983-.17-7.315 1.19-26.095-.918-31.607-4.862.51-2.55 17.284-2.856 22.761z" fill="#FEFFFF"/><path fill-rule="evenodd" clip-rule="evenodd" d="M228.888 284.636c1.156 17.998 9.452 12.078-3.06 28.886-6.018 8.063-4.318 7.757-5.814 4.967-.204.272-.374.647-.476.851-2.38 4.797-1.054 4.559-5.032 8.403-1.7 3.743-4.352 6.431-6.902 9.969-6.46 8.914-2.482 3.436-9.928 6.839-.476 1.701-.68 4.253-1.224 5.375-2.55 5.376-6.324.681-6.63 10.275 1.734 5.988.17.579 5.27 5.954.17.17.34.477.51.613.17.17.34.442.51.612 1.734 1.633.034 1.055 2.72 1.769.782-2.994-.102-.884 1.122-3.334.85-6.022 1.564-6.702 4.76-10.853 1.224-1.565 2.176-2.892 3.536-4.321 2.04-2.178 1.598-1.735 3.944-3.198l1.564-1.633c2.652-5.478 8.976-10.343 13.294-15.447 4.386-5.171 9.01-10.105 13.838-14.97 3.434-4.287 8.024-7.315 7.242-16.637-.578-6.567-1.938-13.303-2.618-20.21-7.922-.578-12.614 3.334-16.626 6.09z" fill="#FFB5B5"/><path fill-rule="evenodd" clip-rule="evenodd" d="M405.586 429.676c-14.688-2.007-21.556 5.172-18.428 15.787 2.89 9.662 14.314 12.622 11.56 22.115-7.888 2.552-12.376-3.641-16.354-7.179l-2.618-1.939c-3.162 2.892-3.808 3.776-5.372 6.94 3.434 4.968 4.726 4.73 9.826 8.812l-2.21 6.941c2.652 1.701 3.332 2.177 6.698 3.096l3.502-6.43c11.356 1.735 21.318-1.463 19.72-14.494-1.394-11.262-14.654-14.086-12.342-23.952 9.724-1.837 10.54 5.001 17.442 8.267l4.488-6.838c-2.414-3.232-4.386-5.138-8.398-6.873l1.904-7.757-6.188-2.518-3.23 6.022z" fill="#126E82"/><path fill-rule="evenodd" clip-rule="evenodd" d="M357.136 137.181c8.67 4.457 32.504 30.586 36.584 42.46 3.264-1.803 4.998-4.355 6.664-7.757 1.632-3.334 2.516-6.736 2.72-10.649.476-8.71-2.924-15.957-6.596-21.23-2.89-4.219-10.37-9.187-17.884-10.275-6.936-.987-17.986.34-21.488 7.451z" fill="#FE8BC9"/><path fill-rule="evenodd" clip-rule="evenodd" d="M392.021 403.513c51.849-4.253 80.681 61.853 35.019 93.869 7.786-1.191 12.614-6.975 17.476-9.867 4.114-5.784 12.75-13.405 13.43-27.796.782-16.331-1.598-25.314-7.82-34.704-8.262-12.418-22.712-24.19-39.065-24.633-3.706-.068-11.798-.476-15.096.613-5.848 1.973-1.326-.374-3.944 2.518z" fill="#126E82"/><path fill-rule="evenodd" clip-rule="evenodd" d="M439.178 294.027l-.306 5.341c20.264-.17 32.878-13.643 33.558-33.376l-4.59.34-28.254-1.123-.408 28.818z" fill="#FF8787"/><path fill-rule="evenodd" clip-rule="evenodd" d="M213.758 345.81c5.032 2.211 12.07 5.137 20.74 5.375 7.752.238 18.02.817 24.378-2.007-1.394-5.58-1.802-4.865-5.644-7.655-7.344-5.342-9.928-7.826-9.826-15.957 0-2.722.578-3.266-.238-6.328-1.564-5.818-.884-2.416-2.278-3.845-4.828 4.865-9.452 9.799-13.838 14.97-4.318 5.104-10.642 9.969-13.294 15.447z" fill="#FF302F"/><path fill-rule="evenodd" clip-rule="evenodd" d="M126.072 342.339c-.612-4.457 5.134-5.001 5.78-1.02.68 4.321-5.27 4.661-5.78 1.02zm-7.14-19.767l5.066-5.784 17.272 16.263-5.032 5.784-17.306-16.263zm20.978-6.022l8.772 8.914c-1.7 3.334-2.55 4.151-5.984 5.75l-12.274-12.112c-3.4-2.994-2.924-1.599-3.128-5.92-.646-1.123-.306-1.259-2.176-2.654-4.08 1.293-9.826 9.798-15.538 13.915-2.006 5.172-.748 3.471 1.156 7.825 24.14 17.658 8.976 28.035 39.508-2.245 2.142-5.58 4.352-4.423 6.732-8.914-3.774-3.777-7.038-6.941-11.05-10.785-2.312-2.246-8.67-10.616-11.526-9.016 3.57 3.912 6.8 6.634 5.508 15.242z" fill="#FEFFFF"/><path fill-rule="evenodd" clip-rule="evenodd" d="M60.316 192.026l3.026.272.408-4.083c-1.054-4.559-2.686-7.281-1.496-11.193 8.704 2.279 2.618 6.804 8.806 12.86-7.684-25.007 10.132-15.923 19.414-18.712 4.624-8.744-12.988-24.123-27.472-15.039-14.484 9.051-7.412 23.17-2.686 35.895z" fill="#7E305A"/><path fill-rule="evenodd" clip-rule="evenodd" d="M63.75 188.215c2.686 4.423 1.802 6.192 5.984 9.425 2.788 2.177 6.052 4.321 10.132 4.457l2.788.544c4.828-3.232 6.426-6.362 7.548-12.589.442-2.517 1.156-7.314 1.292-8.846.34-4.593-.918-5.647-1.02-10.036-9.282 2.79-27.098-6.295-19.414 18.712-6.188-6.056-.102-10.581-8.806-12.86-1.19 3.912.442 6.634 1.496 11.193z" fill="#FFB5B5"/><path fill-rule="evenodd" clip-rule="evenodd" d="M42.466 330.159c25.126 7.145 45.39-3.062 67.014-8.676v-3.844c-6.222 2.585-7.752 7.246-25.636 7.757-6.494.204-24.446-.613-30.43-4.423-5.066-.068-8.432-2.28-13.192-3.573.68 3.267.68 2.45 1.02 6.057.068 1.054.034 2.143.204 3.13l1.02 3.572z" fill="#132C33"/><path fill-rule="evenodd" clip-rule="evenodd" d="M224.978 222.408c-.68 8.982-.51 15.719 6.29 19.802 5.712-.136 7.48-.545 11.05-3.709.068-5.444-2.584-16.909-4.148-21.332l-3.332-.647.136-3.096-8.636-1.497-1.36 10.479z" fill="#FFB5B5"/><path fill-rule="evenodd" clip-rule="evenodd" d="M125.12 310.528c1.87 1.395 1.53 1.531 2.176 2.654l3.4-2.382c1.768 2.245 3.536 4.831 5.576 6.805l3.638-1.055c1.292-8.608-1.938-11.33-5.508-15.242-5.1-1.906-4.012-1.702-5.95-5.92l-1.292-1.123c-2.38-5.036-3.468-4.355-9.52-7.043-4.08-1.837-7.412-3.742-11.526-5.41 2.788 4.559 6.324 9.391 9.724 13.916a371.088 371.088 0 004.828 6.328c3.298 4.355 2.414 2.926 4.454 8.472z" fill="#FF8787"/><path fill-rule="evenodd" clip-rule="evenodd" d="M61.438 496.668L49.3 495.034c-2.176 3.437-2.482 4.185-2.312 9.357 3.944 2.722 26.588 8.812 31.042 7.723-.102-8.744-3.094-1.803-16.592-15.446zM98.77 485.372c-1.7-1.599-3.842-1.735-5.984-2.075-2.89-.409-4.216-.783-6.698-1.089-3.264 3.47-2.72 4.967-2.652 10.139l26.554 7.008c.646.068 11.866-.034-2.21-7.791-3.876-2.177-5.814-4.083-9.01-6.192z" fill="#132C33"/><path fill-rule="evenodd" clip-rule="evenodd" d="M290.734 529.262c-1.938 8.267-9.894 13.813-9.758 18.066 4.454.646 16.898-8.234 21.692-10.343 2.89-1.837 4.964-1.259 4.284-5.444-.442-2.654-3.298-4.525-5.406-5.988-3.094 1.599-6.052 2.926-10.812 3.709zM232.254 535.182l-10.2-2.586c-15.776 9.492-16.83 3.504-18.632 10.037l29.784 3.13c.578-4.559 1.904-7.213-.952-10.581z" fill="#51C4D3"/><path fill-rule="evenodd" clip-rule="evenodd" d="M220.626 305.22l-.612 13.269c1.496 2.79-.204 3.096 5.814-4.967 12.512-16.808 4.216-10.888 3.06-28.886l-.17-5.137c-6.256 8.165-3.978 21.196-8.092 25.721z" fill="#FF302F"/><path fill-rule="evenodd" clip-rule="evenodd" d="M97.172 261.977c2.89 2.79 13.464 9.288 17.884 11.364-8.466-18.475-12.92-17.522-14.994-32.22-.51-3.709-.782-10.037-3.468-12.793l.578 33.649z" fill="#FF8787"/><path fill-rule="evenodd" clip-rule="evenodd" d="M227.256 194.884c-7.344 1.939-3.128 11.874-.918 17.045l8.636 1.497c1.904-8.063 3.672-9.526 5.644-15.514-3.264-2.008-1.666-1.701-4.998-3.232l-8.364.204z" fill="#132C33"/><path fill-rule="evenodd" clip-rule="evenodd" d="M337.178 159.976c7.14 2.586 20.06 9.22 26.69 10.037l.238-.579c-1.224-1.122-.374-.272-1.802-1.837l-7.548-9.254c-1.632-1.939-2.55-3.13-4.454-5.58-2.618-3.3-1.53-3.538-5.338-4.899l-7.786 12.112z" fill="#126E82"/><path fill-rule="evenodd" clip-rule="evenodd" d="M136.238 338.835l5.032-5.784-17.272-16.263-5.066 5.784 17.306 16.263zM127.296 313.182c.204 4.32-.272 2.926 3.128 5.92l12.274 12.112c3.434-1.599 4.284-2.416 5.984-5.75l-8.772-8.914-3.638 1.055c-2.04-1.974-3.808-4.56-5.576-6.805l-3.4 2.382z" fill="#51C4D3"/><path fill-rule="evenodd" clip-rule="evenodd" d="M344.964 147.864c3.808 1.361 2.72 1.599 5.338 4.899 1.904 2.45 2.822 3.641 4.454 5.58l7.548 9.254c1.428 1.565.578.715 1.802 1.837-1.224-5.92-5.678-19.631-8.942-24.19-4.352.204-7.038.442-10.2 2.62zM363.868 170.013c-6.63-.817-19.55-7.451-26.69-10.037l.884 10.513 26.044.851c1.564-1.872.68.102-.238-1.327z" fill="#51C4D3" fill-opacity=".43"/><path fill-rule="evenodd" clip-rule="evenodd" d="M239.02 408.922v3.232l25.704-2.483v-8.336c-9.52 3.538-16.15 4.967-25.704 7.587z" fill="#132C33"/><path fill-rule="evenodd" clip-rule="evenodd" d="M199.954 365.815c2.176 1.021 5.814 2.314 7.786 3.062 1.768-2.517 3.808-17.181 4.454-21.434-2.346 1.463-1.904 1.02-3.944 3.198-1.36 1.429-2.312 2.756-3.536 4.321-3.196 4.151-3.91 4.831-4.76 10.853z" fill="#51C4D3" fill-opacity=".43"/><path fill-rule="evenodd" clip-rule="evenodd" d="M60.316 192.026v5.579c6.358 3.471 9.35 6.941 17.85 6.907l1.7-2.416c-4.08-.136-7.344-2.279-10.132-4.457-4.182-3.232-3.298-5.001-5.984-9.424l-.408 4.083-3.026-.272zM231.268 242.21c-.17 2.858-.578 3.368-1.428 4.831-.408 5.171-.408 1.361 1.36 2.926 7.684-.715 7.378-1.803 12.274-4.525l-1.156-6.941c-3.57 3.164-5.338 3.573-11.05 3.709z" fill="#FF8787"/><path fill-rule="evenodd" clip-rule="evenodd" d="M240.618 197.912c-1.972 5.988-3.74 7.451-5.644 15.514l-.136 3.096 3.332.647c.068-4.015.442-6.805 1.802-10.207 1.768-4.525 2.516-6.294 6.086-7.791-1.564-3.097.34-.715-1.734-2.824l-3.706 1.565z" fill="#51C4D3"/><path fill-rule="evenodd" clip-rule="evenodd" d="M207.74 412.733l27.914-.272v-2.96c-9.996.918-18.156 3.028-27.914-.034v3.266z" fill="#132C33"/><path fill-rule="evenodd" clip-rule="evenodd" d="M402.084 123.469c-5.44 1.327-10.71 9.493-4.59 9.391.884-.034 10.812-5.478 4.59-9.391zM364.242 112.106v1.122c0 7.111 5.236 7.894 5.236 0 0-8.743-5.236-9.254-5.236-1.122zM336.192 130.444c3.332-1.769.85.579 2.754-2.688-1.632-3.368-4.454-7.553-8.874-7.247-1.02 5.376 3.162 7.826 6.12 9.935z" fill="#51C4D3" fill-opacity=".43"/><path fill-rule="evenodd" clip-rule="evenodd" d="M131.852 341.319c-.646-3.981-6.392-3.437-5.78 1.02.51 3.641 6.46 3.301 5.78-1.02z" fill="#51C4D3"/><path fill-rule="evenodd" clip-rule="evenodd" d="M372.062 224.994l-9.622-.306-.34.51c2.346 3.3 8.058 4.321 9.962-.204z" fill="#EC4F90"/></svg>